<?xml version="1.0"?>
<svg width="250mm" height="200mm" viewBox="0 0   2500    1500"
     xmlns="http://www.w3.org/2000/svg"
     xmlns:xlink="http://www.w3.org/1999/xlink"
     xmlns:ev="http://www.w3.org/2001/xml-events">
<g font-family="Verdana" font-size="8" >
  <line x1="   300" y1="   350" x2="   300" y2="   430" style = "stroke:silver  ;"/>
  <line x1="   300" y1="   350" x2="   300" y2="   510" style = "stroke:silver  ;"/>
  <line x1="   300" y1="   350" x2="   300" y2="   590" style = "stroke:silver  ;"/>
  <line x1="   300" y1="   430" x2="   300" y2="   510" style = "stroke:silver  ;"/>
  <line x1="   300" y1="   430" x2="   300" y2="   590" style = "stroke:silver  ;"/>
  <line x1="   300" y1="   510" x2="   300" y2="   590" style = "stroke:silver  ;"/>
  <rect x="   200" y="   340" width="   200" height="    20" style = "fill:snow; stroke: Black;"/>     1
  <text x="   202" y="   353">OutdoorAir:NodeList</text>
  <rect x="   200" y="   420" width="   200" height="    20" style = "fill:snow; stroke: Black;"/>     2
  <text x="   202" y="   433">OutdoorAir:NodeList</text>
  <rect x="   200" y="   500" width="   200" height="    20" style = "fill:snow; stroke: Black;"/>     3
  <text x="   202" y="   513">OutdoorAir:NodeList</text>
  <rect x="   200" y="   580" width="   200" height="    20" style = "fill:snow; stroke: Black;"/>     4
  <text x="   202" y="   593">OutdoorAir:NodeList</text>
  <rect x="  1450" y="    20" width="   200" height="    20" style = "fill:chartreuse; stroke: Black;"/>    17
  <text x="  1452" y="    33">BLOCK1:ZONE3</text>
  <rect x="  1200" y="    20" width="   200" height="    20" style = "fill:wheat; stroke: Black;"/>    21
  <text x="  1202" y="    33">BLOCK1:ZONE3 AHU ZONE SPLITTER</text>
  <rect x="  1200" y="   100" width="   200" height="    20" style = "fill:wheat; stroke: Black;"/>    22
  <text x="  1202" y="   113">BLOCK1:ZONE7 AHU ZONE SPLITTER</text>
  <rect x="  1200" y="   180" width="   200" height="    20" style = "fill:wheat; stroke: Black;"/>    23
  <text x="  1202" y="   193">BLOCK1:ZONE6 AHU ZONE SPLITTER</text>
  <rect x="  1200" y="   260" width="   200" height="    20" style = "fill:wheat; stroke: Black;"/>    24
  <text x="  1202" y="   273">BLOCK6:ZONE1 AHU ZONE SPLITTER</text>
  <rect x="  1700" y="    20" width="   200" height="    20" style = "fill:wheat; stroke: Black;"/>    25
  <text x="  1702" y="    33">BLOCK1:ZONE3 AHU ZONE MIXER</text>
  <rect x="  1700" y="   100" width="   200" height="    20" style = "fill:wheat; stroke: Black;"/>    26
  <text x="  1702" y="   113">BLOCK1:ZONE7 AHU ZONE MIXER</text>
  <rect x="  1700" y="   180" width="   200" height="    20" style = "fill:wheat; stroke: Black;"/>    27
  <text x="  1702" y="   193">BLOCK1:ZONE6 AHU ZONE MIXER</text>
  <rect x="  1700" y="   260" width="   200" height="    20" style = "fill:wheat; stroke: Black;"/>    28
  <text x="  1702" y="   273">BLOCK6:ZONE1 AHU ZONE MIXER</text>
  <rect x="   200" y="    20" width="   200" height="    20" style = "fill:lawngreen; stroke: Black;"/>    29
  <text x="   202" y="    33">BLOCK1:ZONE3 AHU OA MIXING BOX</text>
  <rect x="   200" y="   100" width="   200" height="    20" style = "fill:lawngreen; stroke: Black;"/>    30
  <text x="   202" y="   113">BLOCK1:ZONE7 AHU OA MIXING BOX</text>
  <rect x="   200" y="   180" width="   200" height="    20" style = "fill:lawngreen; stroke: Black;"/>    31
  <text x="   202" y="   193">BLOCK1:ZONE6 AHU OA MIXING BOX</text>
  <rect x="   200" y="   260" width="   200" height="    20" style = "fill:lawngreen; stroke: Black;"/>    32
  <text x="   202" y="   273">BLOCK6:ZONE1 AHU OA MIXING BOX</text>
  <rect x="   450" y="    20" width="   200" height="    20" style = "fill:silver; stroke: Black;"/>    37
  <text x="   452" y="    33">BLOCK1:ZONE3 AHU SUPPLY FAN</text>
  <rect x="   450" y="   100" width="   200" height="    20" style = "fill:silver; stroke: Black;"/>    38
  <text x="   452" y="   113">BLOCK1:ZONE7 AHU SUPPLY FAN</text>
  <rect x="   450" y="   180" width="   200" height="    20" style = "fill:silver; stroke: Black;"/>    39
  <text x="   452" y="   193">BLOCK1:ZONE6 AHU SUPPLY FAN</text>
  <rect x="   450" y="   260" width="   200" height="    20" style = "fill:silver; stroke: Black;"/>    40
  <text x="   452" y="   273">BLOCK6:ZONE1 AHU SUPPLY FAN</text>
  <rect x="   700" y="    20" width="   200" height="    20" style = "fill:salmon; stroke: Black;"/>    41
  <text x="   702" y="    33">BLOCK1:ZONE3 AHU HEATING COIL</text>
  <rect x="   700" y="   100" width="   200" height="    20" style = "fill:salmon; stroke: Black;"/>    42
  <text x="   702" y="   113">BLOCK1:ZONE7 AHU HEATING COIL</text>
  <rect x="   700" y="   180" width="   200" height="    20" style = "fill:salmon; stroke: Black;"/>    43
  <text x="   702" y="   193">BLOCK1:ZONE6 AHU HEATING COIL</text>
  <rect x="   700" y="   260" width="   200" height="    20" style = "fill:salmon; stroke: Black;"/>    44
  <text x="   702" y="   273">BLOCK6:ZONE1 AHU HEATING COIL</text>
  <rect x="   950" y="    20" width="   200" height="    20" style = "fill:skyblue; stroke: Black;"/>    45
  <text x="   952" y="    33">BLOCK1:ZONE3 AHU COOLING COIL</text>
  <rect x="   950" y="   100" width="   200" height="    20" style = "fill:skyblue; stroke: Black;"/>    46
  <text x="   952" y="   113">BLOCK1:ZONE7 AHU COOLING COIL</text>
  <rect x="   950" y="   180" width="   200" height="    20" style = "fill:skyblue; stroke: Black;"/>    47
  <text x="   952" y="   193">BLOCK1:ZONE6 AHU COOLING COIL</text>
  <rect x="   950" y="   260" width="   200" height="    20" style = "fill:skyblue; stroke: Black;"/>    48
  <text x="   952" y="   273">BLOCK6:ZONE1 AHU COOLING COIL</text>
  <rect x="  1450" y="   100" width="   200" height="    20" style = "fill:chartreuse; stroke: Black;"/>    49
  <text x="  1452" y="   113">BLOCK1:ZONE7</text>
  <rect x="  1450" y="   180" width="   200" height="    20" style = "fill:chartreuse; stroke: Black;"/>    50
  <text x="  1452" y="   193">BLOCK1:ZONE6</text>
  <rect x="  1450" y="   260" width="   200" height="    20" style = "fill:chartreuse; stroke: Black;"/>    51
  <text x="  1452" y="   273">BLOCK6:ZONE1</text>
  <line x1="  1400" y1="    30" x2="  1450" y2="    30" style = "stroke: Black;"/>
  <line x1="  1400" y1="   110" x2="  1450" y2="   110" style = "stroke: Black;"/>
  <line x1="  1400" y1="   190" x2="  1450" y2="   190" style = "stroke: Black;"/>
  <line x1="  1400" y1="   270" x2="  1450" y2="   270" style = "stroke: Black;"/>
  <line x1="   400" y1="    30" x2="   450" y2="    30" style = "stroke: Black;"/>
  <line x1="   400" y1="   110" x2="   450" y2="   110" style = "stroke: Black;"/>
  <line x1="   400" y1="   190" x2="   450" y2="   190" style = "stroke: Black;"/>
  <line x1="   400" y1="   270" x2="   450" y2="   270" style = "stroke: Black;"/>
  <line x1="   650" y1="    30" x2="   700" y2="    30" style = "stroke: Black;"/>
  <line x1="   650" y1="   110" x2="   700" y2="   110" style = "stroke: Black;"/>
  <line x1="   650" y1="   190" x2="   700" y2="   190" style = "stroke: Black;"/>
  <line x1="   650" y1="   270" x2="   700" y2="   270" style = "stroke: Black;"/>
  <line x1="   900" y1="    30" x2="   950" y2="    30" style = "stroke: Black;"/>
  <line x1="   900" y1="   110" x2="   950" y2="   110" style = "stroke: Black;"/>
  <line x1="   900" y1="   190" x2="   950" y2="   190" style = "stroke: Black;"/>
  <line x1="   900" y1="   270" x2="   950" y2="   270" style = "stroke: Black;"/>
  <line x1="  1150" y1="    30" x2="  1200" y2="    30" style = "stroke: Black;"/>
  <line x1="  1150" y1="   110" x2="  1200" y2="   110" style = "stroke: Black;"/>
  <line x1="  1150" y1="   190" x2="  1200" y2="   190" style = "stroke: Black;"/>
  <line x1="  1150" y1="   270" x2="  1200" y2="   270" style = "stroke: Black;"/>
  <line x1="  1650" y1="    30" x2="  1700" y2="    30" style = "stroke: Black;"/>
  <line x1="  1650" y1="   110" x2="  1700" y2="   110" style = "stroke: Black;"/>
  <line x1="  1650" y1="   190" x2="  1700" y2="   190" style = "stroke: Black;"/>
  <line x1="  1650" y1="   270" x2="  1700" y2="   270" style = "stroke: Black;"/>
  <line x1="   200" y1="    30" x2="   175" y2="    30" style = "stroke: Black;"/>
  <line x1="   175" y1="    30" x2="   175" y2="     0" style = "stroke: Black;"/>
  <line x1="   175" y1="     0" x2="  1925" y2="     0" style = "stroke: Black;"/>
  <line x1="  1925" y1="     0" x2="  1925" y2="    30" style = "stroke: Black;"/>
  <line x1="  1925" y1="    30" x2="  1900" y2="    30" style = "stroke: Black;"/>
  <line x1="   200" y1="   110" x2="   175" y2="   110" style = "stroke: Black;"/>
  <line x1="   175" y1="   110" x2="   175" y2="    80" style = "stroke: Black;"/>
  <line x1="   175" y1="    80" x2="  1925" y2="    80" style = "stroke: Black;"/>
  <line x1="  1925" y1="    80" x2="  1925" y2="   110" style = "stroke: Black;"/>
  <line x1="  1925" y1="   110" x2="  1900" y2="   110" style = "stroke: Black;"/>
  <line x1="   200" y1="   190" x2="   175" y2="   190" style = "stroke: Black;"/>
  <line x1="   175" y1="   190" x2="   175" y2="   160" style = "stroke: Black;"/>
  <line x1="   175" y1="   160" x2="  1925" y2="   160" style = "stroke: Black;"/>
  <line x1="  1925" y1="   160" x2="  1925" y2="   190" style = "stroke: Black;"/>
  <line x1="  1925" y1="   190" x2="  1900" y2="   190" style = "stroke: Black;"/>
  <line x1="   200" y1="   270" x2="   175" y2="   270" style = "stroke: Black;"/>
  <line x1="   175" y1="   270" x2="   175" y2="   240" style = "stroke: Black;"/>
  <line x1="   175" y1="   240" x2="  1925" y2="   240" style = "stroke: Black;"/>
  <line x1="  1925" y1="   240" x2="  1925" y2="   270" style = "stroke: Black;"/>
  <line x1="  1925" y1="   270" x2="  1900" y2="   270" style = "stroke: Black;"/>
  <text x="   200" y="   640">Unused Non-Parent Objects:</text>
  <text x="   220" y="   660">OutdoorAir:Node</text>
  <text x="   220" y="   680">OutdoorAir:Node</text>
  <text x="   220" y="   700">OutdoorAir:Node</text>
  <text x="   220" y="   720">OutdoorAir:Node</text>
  <text x="   220" y="   740">BLOCK1:ZONE3 AHU SUPPLY AIR TEMP MANAGER</text>
  <text x="   220" y="   760">BLOCK1:ZONE7 AHU SUPPLY AIR TEMP MANAGER</text>
  <text x="   220" y="   780">BLOCK1:ZONE6 AHU SUPPLY AIR TEMP MANAGER</text>
  <text x="   220" y="   800">BLOCK6:ZONE1 AHU SUPPLY AIR TEMP MANAGER</text>
  <text x="   220" y="   820">BLOCK1:ZONE3 AHU COOLING COIL AIR TEMP MANAGER</text>
  <text x="   220" y="   840">BLOCK1:ZONE7 AHU COOLING COIL AIR TEMP MANAGER</text>
  <text x="   220" y="   860">BLOCK1:ZONE6 AHU COOLING COIL AIR TEMP MANAGER</text>
  <text x="   220" y="   880">BLOCK6:ZONE1 AHU COOLING COIL AIR TEMP MANAGER</text>
  <text x="   220" y="   900">BLOCK1:ZONE3 AHU OA CONTROLLER</text>
  <text x="   220" y="   920">BLOCK1:ZONE7 AHU OA CONTROLLER</text>
  <text x="   220" y="   940">BLOCK1:ZONE6 AHU OA CONTROLLER</text>
  <text x="   220" y="   960">BLOCK6:ZONE1 AHU OA CONTROLLER</text>
  <text x="   200" y="  1000">
The following are not supported: objects related to controls, AirTerminal:SingleDuct:Uncontrolled, or ZoneHVAC:IdealLoadsAirSystem</text>
</g>
</svg>
